<?xml version="1.0" encoding="utf-8"?>
<!-- Svg Vector Icons : http://www.onlinewebfonts.com/icon -->
<!DOCTYPE svg PUBLIC "-//W3C//DTD SVG 1.1//EN" "http://www.w3.org/Graphics/SVG/1.1/DTD/svg11.dtd">
<svg version="1.1" xmlns="http://www.w3.org/2000/svg" xmlns:xlink="http://www.w3.org/1999/xlink" x="0px" y="0px" viewBox="0 0 256 256" enable-background="new 0 0 256 256" xml:space="preserve">
<metadata> Svg Vector Icons : http://www.onlinewebfonts.com/icon </metadata>
<g><g><g><path fill="#000000" d="M124.9,25.9l-1.8,1.6l-0.3,64.6l-0.3,64.6l-18.1-17.6c-16.6-16.3-18.2-17.6-20.3-17.6c-1.7,0-2.7,0.5-3.7,1.7c-2.9,3.7-3.1,3.5,21.4,28c12.5,12.5,23.5,23,24.4,23.3c1,0.4,2.2,0.4,3.2,0c0.8-0.3,11.9-10.7,24.4-23.1c21.5-21.2,22.9-22.7,22.9-24.8c0-3-2.2-5.2-5.2-5.2c-2,0-3.8,1.6-20.1,17.7l-18,17.8l-0.1-64.2c-0.1-46-0.4-64.6-0.9-65.6c-0.7-1.4-3.1-2.9-4.8-2.9C127.2,24.3,125.9,25.1,124.9,25.9z"/><path fill="#000000" d="M11.6,147.2l-1.6,1.6v39.5v39.6l1.9,1.9l1.9,1.9h113.9c85.3,0,114.2-0.2,115.3-0.8c3.1-1.6,3-0.6,3.1-42.3c0-39,0-39.6-1.4-41.3c-1.8-2.3-5.2-2.3-7.4-0.1l-1.6,1.6V185v36.2H128H20.4v-36.1c0-35.5,0-36.1-1.4-37.8C17.2,145,13.8,145,11.6,147.2z"/></g></g></g>
</svg>