<?xml version="1.0" encoding="utf-8"?>
<!-- Svg Vector Icons : http://www.onlinewebfonts.com/icon -->
<!DOCTYPE svg PUBLIC "-//W3C//DTD SVG 1.1//EN" "http://www.w3.org/Graphics/SVG/1.1/DTD/svg11.dtd">
<svg version="1.1" xmlns="http://www.w3.org/2000/svg" xmlns:xlink="http://www.w3.org/1999/xlink" x="0px" y="0px" viewBox="0 0 256 256" enable-background="new 0 0 256 256" xml:space="preserve">
<metadata> Svg Vector Icons : http://www.onlinewebfonts.com/icon </metadata>
<g><g><path fill="#000000" d="M128,10C62.8,10,10,62.8,10,128c0,65.2,52.8,118,118,118c65.2,0,118-52.8,118-118C246,62.8,193.2,10,128,10z M195.8,93.2c0.1,1.5,0.1,3,0.1,4.5c0,46.2-35.2,99.6-99.6,99.6c-19.7,0-38.1-5.8-53.6-15.7c2.7,0.3,5.5,0.5,8.4,0.5c16.4,0,31.5-5.6,43.4-15c-15.3-0.3-28.2-10.4-32.7-24.3c2.1,0.4,4.3,0.6,6.6,0.6c3.2,0,6.3-0.4,9.2-1.2c-16-3.2-28.1-17.4-28.1-34.3c0-0.1,0-0.3,0-0.4c4.7,2.6,10.1,4.2,15.8,4.4c-9.4-6.3-15.6-17-15.6-29.1c0-6.4,1.7-12.4,4.7-17.6c17.3,21.2,43,35.1,72.1,36.6c-0.6-2.6-0.9-5.2-0.9-8c0-19.3,15.7-35,35-35c10.1,0,19.2,4.2,25.6,11.1c8-1.6,15.5-4.5,22.2-8.5c-2.6,8.2-8.2,15-15.4,19.4c7.1-0.8,13.8-2.7,20.1-5.5C208.6,82.1,202.7,88.3,195.8,93.2z"/></g></g>
</svg>